<?xml version="1.0" encoding="iso-8859-1"?>
<!-- Generator: Adobe Illustrator 19.0.0, SVG Export Plug-In . SVG Version: 6.00 Build 0)  -->
<svg version="1.1" id="Capa_1" xmlns="http://www.w3.org/2000/svg" xmlns:xlink="http://www.w3.org/1999/xlink" x="0px" y="0px"
	 viewBox="0 0 512 512" style="enable-background:new 0 0 512 512;" xml:space="preserve">
<g>
	<g>
		<path d="M507.493,417.366l-43.119-42.895c11.747-27.681,17.713-57.051,17.713-87.471c0-91.881-56.483-173.152-137.654-207.929
			c-7.615-3.264-16.432,0.266-19.695,7.88c-3.263,7.615,0.266,16.433,7.88,19.695C404.075,137.263,452.086,209.741,452.086,287
			c0,22.227-3.665,43.803-10.911,64.393l-24.084-23.959c3.317-13.163,4.995-26.724,4.995-40.434
			c0-45.577-19.121-89.557-52.459-120.663c-6.057-5.652-15.549-5.323-21.2,0.734c-5.652,6.057-5.323,15.549,0.734,21.2
			c27.681,25.827,42.925,60.89,42.925,98.729c0,4.889-0.273,9.751-0.79,14.573c-23.987-24.212-59.287-32.858-91.217-24.027
			c-2.014-9.379-6.952-17.683-13.819-23.901c8.757-8.616,15.778-18.96,20.553-30.487c8.44-20.375,9.306-43.1,2.453-64.05
			L270.598,11.206C268.872,4.605,262.909,0,256.086,0c-6.823,0-12.787,4.605-14.512,11.206l-13.472,51.53
			C116.779,76.675,31.086,173.141,31.086,287c0,9.007,0.541,18.081,1.608,26.969c0.915,7.618,7.388,13.214,14.874,13.214
			c9.031,0,15.982-7.877,14.912-16.789c-0.925-7.707-1.394-15.578-1.394-23.394c0-94.616,68.175-175.367,158.735-192.592
			l-8.574,32.796C153.933,143.44,108.909,190.677,95.288,249.85c-1.858,8.073,3.18,16.124,11.253,17.982
			c8.073,1.859,16.124-3.18,17.982-11.253c9.738-42.304,38.992-77.148,77.389-94.188c-5.736,20.026-4.555,41.451,3.447,60.767
			c4.775,11.527,11.796,21.871,20.553,30.487c-6.865,6.217-11.803,14.52-13.818,23.896c-11.835-3.272-24.297-4.18-36.66-2.551
			c-21.861,2.878-41.971,13.486-56.687,29.891L4.562,417.312c-4.907,4.832-5.894,12.384-2.393,18.314
			c3.483,5.901,10.558,8.724,17.192,6.752l59.019-17.549C120.95,479.59,186.605,512,256.086,512
			c49.026,0,97.317-16.01,135.976-45.08c6.621-4.979,7.953-14.383,2.974-21.004c-4.979-6.621-14.382-7.954-21.004-2.974
			C340.537,468.129,298.65,482,256.086,482c-56.245,0-109.605-24.525-146.478-66.457l32.178-9.568
			c30.6,29.358,71.699,46.025,114.3,46.025c16.448,0,32.695-2.417,48.29-7.183c7.922-2.421,12.382-10.807,9.961-18.729
			c-2.422-7.922-10.808-12.381-18.729-9.961c-12.75,3.897-26.047,5.873-39.521,5.873c-28.781,0-56.724-9.302-79.688-26.066
			c19.747-5.197,37.275-16.807,49.763-33.083c7.592-9.894,13.037-21.141,16.121-33.026c4.353,1.406,8.989,2.175,13.804,2.175
			c4.859,0,9.536-0.784,13.923-2.215c8.835,32.95,35.921,59.713,71.067,67.178l151.531,45.406
			c6.546,1.962,13.653-0.747,17.195-6.696C513.321,429.763,512.369,422.217,507.493,417.366z M165.397,367.715
			c-1.223,0.25,4.962-1.514-96.912,28.757c49.039-48.295,71.836-70.705,72.355-71.291c12.16-13.713,29.395-20.892,46.782-20.892
			c9.376,0,18.798,2.089,27.486,6.368C213.287,338.244,193.035,362.059,165.397,367.715z M256.086,302c-8.271,0-15-6.729-15-15
			s6.729-15,15-15c8.271,0,15,6.729,15,15S264.357,302,256.086,302z M256.085,239.684c-22.979-15.37-33.478-44.817-24.557-71.581
			c0.237-0.714,24.53-93.698,24.557-93.8c17.267,66.016,24.312,93.065,24.557,93.801
			C289.563,194.867,279.064,224.314,256.085,239.684z M347.775,367.716c-28.15-5.761-48.804-29.579-50.701-57.072
			c25.152-12.449,56.326-6.811,75.257,14.538c0.488,0.55,25.772,25.671,71.62,71.29
			C342.861,366.202,349.011,367.968,347.775,367.716z"/>
	</g>
</g>
<g>
</g>
<g>
</g>
<g>
</g>
<g>
</g>
<g>
</g>
<g>
</g>
<g>
</g>
<g>
</g>
<g>
</g>
<g>
</g>
<g>
</g>
<g>
</g>
<g>
</g>
<g>
</g>
<g>
</g>
</svg>
